<svg width="77" height="76" viewBox="0 0 77 76" fill="none" xmlns="http://www.w3.org/2000/svg">
<rect x="-1.32465" y="37.6326" width="56.3759" height="56.5069" rx="5" transform="rotate(-44.7356 -1.32465 37.6326)" fill="#D9D9D9"/>
<path d="M34.7718 8.88958C36.5547 7.01757 39.5176 6.9453 41.3896 8.72817L48.5 15.5C50.611 17.1238 49.4627 20.5 46.7994 20.5H39.3728C38.3937 20.5 37.4392 20.8071 36.6437 21.378L34.5578 22.8749C32.5557 24.3117 32.0105 27.0547 33.311 29.148L37.0335 35.1396C37.9375 36.5946 37.9745 38.4273 37.1299 39.9177L33.0083 47.1904C31.8569 49.2221 32.3791 51.7916 34.2322 53.2127L36.546 54.987C37.4005 55.6422 38.4547 55.9828 39.531 55.9514L46.1015 55.7597C48.9302 55.6771 50.2252 59.2517 48 61L41.3009 67.0291C39.4505 68.6946 36.6201 68.6201 34.8598 66.8598L28 60L21.5269 53.2276C20.1097 51.7448 19.8229 49.512 20.8195 47.7192L25.1757 39.8824C25.9942 38.4099 25.9583 36.6111 25.0816 35.1724L20.9981 28.4713C19.9025 26.6735 20.142 24.3653 21.5835 22.8308L28 16L34.7718 8.88958Z" fill="#01A592"/>
</svg>
